<?xml version="1.0" encoding="utf-8"?>
<!-- Generator: Adobe Illustrator 25.4.0, SVG Export Plug-In . SVG Version: 6.00 Build 0)  -->
<svg version="1.1" id="레이어_1" xmlns="http://www.w3.org/2000/svg" xmlns:xlink="http://www.w3.org/1999/xlink" x="0px"
	 y="0px" viewBox="0 0 500 500" style="enable-background:new 0 0 500 500;" xml:space="preserve">
<style type="text/css">
	.st0{fill:#2DB6AF;}
</style>
<g>
	<g>
		<path class="st0" d="M41.75,233.76c-7.72,0-15.16-1.3-22.48-3.92c-6.8-2.36-12.94-6.02-18.56-10.72c-0.92-0.78-0.92-2.1-0.26-2.88
			l10.46-12.54c0.66-0.78,1.96-0.92,2.74-0.26c4.06,3.14,8.24,5.76,12.54,7.72c4.84,2.22,10.06,3.26,15.82,3.26
			c4.58,0,8.1-0.78,10.72-2.48c2.48-1.7,3.8-4.06,3.8-6.92v-0.26c0-1.44-0.26-2.74-0.78-3.8c-0.52-1.04-1.56-2.1-3-3.14
			c-1.44-1.04-3.52-1.96-6.14-2.88c-2.62-0.92-6.02-1.96-10.32-3c-5.1-1.18-9.68-2.62-13.86-4.18c-4.18-1.56-7.58-3.4-10.46-5.62
			s-5.1-5.1-6.66-8.36c-1.56-3.4-2.36-7.44-2.36-12.42v-0.26c0-4.58,0.92-8.76,2.62-12.42s4.06-6.8,7.18-9.54
			c3.14-2.62,6.8-4.7,11.1-6.14c4.18-1.82,9.02-2.48,14.12-2.48c7.32,0,14.12,1.04,20.26,3.26c5.48,1.96,10.72,4.7,15.42,8.24
			c0.92,0.66,1.04,1.96,0.4,2.88l-9.28,13.34c-0.66,0.92-1.82,1.04-2.74,0.52c-3.92-2.48-7.72-4.58-11.5-6.14
			c-4.34-1.84-8.64-2.62-12.96-2.62s-7.58,0.78-9.68,2.48c-2.1,1.7-3.26,3.8-3.26,6.28v0.26c0,1.56,0.26,3,0.92,4.18
			s1.7,2.22,3.4,3.26c1.56,0.92,3.92,1.82,6.66,2.74c2.88,0.92,6.4,1.82,10.72,3c5.1,1.3,9.54,2.88,13.6,4.58
			c3.92,1.7,7.32,3.66,10.06,6.02c2.74,2.36,4.84,5.1,6.14,8.24c1.44,3.14,2.1,6.92,2.1,11.38v0.26c0,4.96-0.92,9.4-2.74,13.2
			c-1.82,3.92-4.32,7.18-7.58,9.8c-3.26,2.62-7.06,4.58-11.5,6.02C52.07,233.12,47.11,233.76,41.75,233.76z"/>
		<path class="st0" d="M97.56,134.03c0-1.18,0.92-2.1,2.1-2.1h38.94c6.02,0,11.38,0.78,16.08,2.48c4.7,1.7,8.76,4.06,12.02,7.06
			c3.26,3,5.88,6.66,7.58,10.98c1.82,4.32,2.62,9.02,2.62,14.12v0.26c0,5.88-1.04,10.98-3.14,15.3s-4.96,8.1-8.62,10.98
			c-3.66,3-7.98,5.22-12.94,6.66c-4.96,1.44-10.2,2.22-15.82,2.22h-14.64c-1.18,0-2.1,0.92-2.1,2.1v26c0,1.18-0.92,2.1-2.1,2.1
			h-17.9c-1.18,0-2.1-0.92-2.1-2.1C97.56,230.1,97.56,134.03,97.56,134.03z M137.16,182.54c5.48,0,9.8-1.44,12.94-4.32
			c3.14-2.88,4.58-6.54,4.58-10.84v-0.26c0-4.96-1.56-8.76-4.84-11.38c-3.26-2.62-7.58-3.92-13.06-3.92h-15.02
			c-1.18,0-2.1,0.92-2.1,2.1v26.66c0,1.18,0.92,2.1,2.1,2.1h15.42v-0.14H137.16z"/>
		<g>
			<g>
				<path class="st0" d="M219.91,133.13c0.4-1.04,1.7-1.82,2.88-1.82h16.34c1.18,0,2.36,0.78,2.88,1.82l41.04,96.47
					c0.52,1.3-0.4,2.88-1.82,2.88h-18.04c-1.18,0-2.36-0.78-2.74-1.82l-7.58-18.68c-0.4-1.04-1.7-1.82-2.74-1.82h-38.42
					c-1.18,0-2.36,0.78-2.74,1.82l-7.58,18.68c-0.4,1.04-1.7,1.82-2.74,1.82h-17.38c-1.44,0-2.48-1.44-1.82-2.88L219.91,133.13z
					 M242.77,187.5l-10.32-25.1c-0.66-1.7-3.14-1.7-3.8,0l-10.32,25.1c-0.52,1.3,0.4,2.74,1.82,2.74h20.64
					C242.25,190.38,243.31,188.8,242.77,187.5z"/>
			</g>
		</g>
		<path class="st0" d="M301.59,134.03c0-1.18,0.92-2.1,2.1-2.1h43.92c12.68,0,22.48,3.4,29.28,10.2c5.76,5.76,8.62,13.34,8.62,23
			v0.26c0,8.1-1.96,14.76-6.02,19.86c-3.52,4.44-7.84,7.98-13.2,10.32c-1.18,0.52-1.56,1.96-0.92,3l20.92,30.58
			c0.92,1.3,0,3.14-1.7,3.14h-21.96l-21.56-32.16h-0.26h-15.02c-1.18,0-2.1,0.92-2.1,2.1v28.1c0,1.18-0.92,2.1-2.1,2.1h-18.04
			c-1.18,0-2.1-0.92-2.1-2.1v-96.31H301.59z M346.03,180.7c5.48,0,9.68-1.3,12.54-3.92c2.88-2.62,4.32-6.02,4.32-10.32v-0.26
			c0-4.84-1.56-8.36-4.58-10.72c-3-2.36-7.32-3.52-12.8-3.52h-19.86c-1.18,0-2.1,0.92-2.1,2.1v24.7c0,1.18,0.92,2.1,2.1,2.1h20.38
			L346.03,180.7L346.03,180.7z"/>
		<path class="st0" d="M412.42,131.95h18.04c1.18,0,2.1,0.92,2.1,2.1v36.72c0,1.82,2.22,2.74,3.52,1.44l37.24-40.12h21.96
			c1.82,0,2.74,2.1,1.44,3.4l-36.34,37.9c-0.66,0.66-0.78,1.82-0.14,2.62l39.34,53.2c1.04,1.3,0,3.26-1.7,3.26h-22.46l-29.66-40.78
			c-0.78-1.04-2.22-1.18-3.14-0.26l-9.94,10.32v28.62c0,1.18-0.92,2.1-2.1,2.1h-18.04c-1.18,0-2.1-0.92-2.1-2.1v-96.35
			C410.34,132.87,411.26,131.95,412.42,131.95z"/>
	</g>
	<g>
		<path class="st0" d="M156.88,288.06c-1.82-4.32-4.32-7.98-7.58-10.98c-3.26-3-7.32-5.36-12.02-7.06
			c-4.7-1.7-10.06-2.48-16.08-2.48H82.26c-1.18,0-2.1,0.92-2.1,2.1v15.94c0,1.18,0.92,2.1,2.1,2.1h20v-0.14h17.12
			c5.48,0,9.94,1.3,13.06,3.92c3.14,2.62,4.84,6.4,4.84,11.38v0.26c0,4.32-1.56,7.98-4.58,10.84c-3,2.88-7.32,4.32-12.94,4.32
			h-15.42c-1.18,0-2.1-0.92-2.1-2.1v-21.3c0-1.18-0.92-2.1-2.1-2.1H82.1c-1.18,0-2.1,0.92-2.1,2.1v21.3c0,1.18-0.92,2.1-2.1,2.1
			H56.75c-1.18,0-2.1,0.92-2.1,2.1l0.14,15.56c0,1.18,0.92,1.96,2.1,1.96h21.04c1.18,0,2.1,0.92,2.1,2.1v26c0,1.18,0.92,2.1,2.1,2.1
			h18.04c1.18,0,2.1-0.92,2.1-2.1v-26.14c0-1.18,0.92-2.1,2.1-2.1h14.64c5.62,0,10.98-0.78,15.82-2.22
			c4.96-1.44,9.28-3.66,12.94-6.66c3.66-3,6.54-6.66,8.62-10.98c2.1-4.44,3.14-9.54,3.14-15.3v-0.26
			C159.5,297.08,158.58,292.38,156.88,288.06z"/>
		<path class="st0" d="M180.28,267.54h18.04c1.18,0,2.1,0.92,2.1,2.1v76.33c0,1.18,0.92,2.1,2.1,2.1h45.88c1.18,0,2.1,0.92,2.1,2.1
			v15.82c0,1.18-0.92,2.1-2.1,2.1h-68.12c-1.18,0-2.1-0.92-2.1-2.1v-96.33C178.32,268.46,179.22,267.54,180.28,267.54z"/>
		<path class="st0" d="M306.41,369.49c-13.46,0-24.04-3.8-31.88-11.24s-11.64-18.56-11.64-33.46v-55.16c0-1.18,0.92-2.1,2.1-2.1
			h18.04c1.18,0,2.1,0.92,2.1,2.1v54.76c0,8.24,1.96,14.38,5.76,18.56c3.8,4.18,9.14,6.28,15.94,6.28c6.8,0,12.16-1.96,15.94-6.02
			c3.8-4.06,5.76-10.06,5.76-18.04v-55.54c0-1.18,0.92-2.1,2.1-2.1h18.04c1.18,0,2.1,0.92,2.1,2.1v54.64c0,7.72-1.04,14.24-3.14,20
			c-2.1,5.62-4.96,10.32-8.76,14.12c-3.8,3.8-8.5,6.54-13.86,8.5C319.21,368.57,313.21,369.49,306.41,369.49z"/>
		<path class="st0" d="M408.88,369.35c-7.72,0-15.16-1.3-22.48-3.92c-6.8-2.36-12.94-6.02-18.56-10.72
			c-0.92-0.78-0.92-2.1-0.26-2.88l10.46-12.54c0.66-0.78,1.96-0.92,2.74-0.26c4.06,3.14,8.24,5.76,12.54,7.72
			c4.84,2.22,10.06,3.26,15.82,3.26c4.58,0,8.1-0.78,10.72-2.48c2.48-1.7,3.8-4.06,3.8-6.92v-0.26c0-1.44-0.26-2.74-0.78-3.8
			c-0.52-1.04-1.56-2.1-3-3.14c-1.44-0.92-3.52-1.96-6.14-2.88c-2.62-0.92-6.02-1.96-10.32-3c-5.1-1.18-9.68-2.62-13.86-4.18
			c-4.18-1.56-7.58-3.4-10.46-5.62c-2.88-2.22-5.1-5.1-6.66-8.36c-1.56-3.4-2.36-7.44-2.36-12.42v-0.26c0-4.58,0.92-8.76,2.62-12.42
			c1.7-3.66,4.06-6.8,7.18-9.54c3.14-2.62,6.8-4.7,11.1-6.14c4.32-1.82,9.02-2.48,14.12-2.48c7.32,0,14.12,1.04,20.26,3.26
			c5.48,1.96,10.72,4.7,15.42,8.24c0.92,0.66,1.04,1.96,0.4,2.88l-9.28,13.34c-0.66,0.92-1.82,1.04-2.74,0.52
			c-3.92-2.48-7.72-4.58-11.5-6.14c-4.32-1.82-8.62-2.62-12.94-2.62c-4.32,0-7.58,0.78-9.68,2.48c-2.1,1.7-3.26,3.8-3.26,6.28v0.26
			c0,1.56,0.26,3,0.92,4.18c0.66,1.18,1.7,2.22,3.4,3.26c1.56,0.92,3.92,1.82,6.66,2.74c2.88,0.92,6.4,1.82,10.72,3
			c5.1,1.3,9.54,2.88,13.6,4.58c3.92,1.7,7.32,3.66,10.06,6.02s4.84,5.1,6.14,8.24c1.44,3.14,2.1,6.92,2.1,11.38v0.26
			c0,4.96-0.92,9.4-2.74,13.2c-1.82,3.92-4.32,7.18-7.58,9.8c-3.26,2.62-7.06,4.58-11.5,6.02
			C419.2,368.71,414.24,369.35,408.88,369.35z"/>
	</g>
</g>
</svg>
