<?xml version="1.0" encoding="utf-8"?>
<!-- Generator: Adobe Illustrator 24.3.0, SVG Export Plug-In . SVG Version: 6.00 Build 0)  -->
<svg version="1.1" id="레이어_1" xmlns="http://www.w3.org/2000/svg" xmlns:xlink="http://www.w3.org/1999/xlink" x="0px"
	 y="0px" viewBox="0 0 682.9 79.1" style="enable-background:new 0 0 682.9 79.1;" xml:space="preserve">
<style type="text/css">
	.st0{fill:#2DB6AF;}
</style>
<g>
	<path class="st0" d="M462,16.8c-1.4-3.3-3.3-6.1-5.8-8.4c-2.5-2.3-5.6-4.1-9.2-5.4c-3.6-1.3-7.7-1.9-12.3-1.9h-29.8
		c-0.9,0-1.6,0.7-1.6,1.6v12.2c0,0.9,0.7,1.6,1.6,1.6h15.3v-0.1h13.1c4.2,0,7.6,1,10,3c2.4,2,3.7,4.9,3.7,8.7v0.2
		c0,3.3-1.2,6.1-3.5,8.3s-5.6,3.3-9.9,3.3h-11.8c-0.9,0-1.6-0.7-1.6-1.6V22c0-0.9-0.7-1.6-1.6-1.6h-13.8c-0.9,0-1.6,0.7-1.6,1.6
		v16.3c0,0.9-0.7,1.6-1.6,1.6h-16.2c-0.9,0-1.6,0.7-1.6,1.6l0.1,11.9c0,0.9,0.7,1.5,1.6,1.5h16.1c0.9,0,1.6,0.7,1.6,1.6v19.9
		c0,0.9,0.7,1.6,1.6,1.6h13.8c0.9,0,1.6-0.7,1.6-1.6V56.4c0-0.9,0.7-1.6,1.6-1.6H433c4.3,0,8.4-0.6,12.1-1.7
		c3.8-1.1,7.1-2.8,9.9-5.1c2.8-2.3,5-5.1,6.6-8.4c1.6-3.4,2.4-7.3,2.4-11.7v-0.2C464,23.7,463.3,20.1,462,16.8z"/>
	<path class="st0" d="M32,79c-5.9,0-11.6-1-17.2-3c-5.2-1.8-9.9-4.6-14.2-8.2c-0.7-0.6-0.7-1.6-0.2-2.2l8-9.6
		c0.5-0.6,1.5-0.7,2.1-0.2c3.1,2.4,6.3,4.4,9.6,5.9c3.7,1.7,7.7,2.5,12.1,2.5c3.5,0,6.2-0.6,8.2-1.9c1.9-1.3,2.9-3.1,2.9-5.3v-0.2
		c0-1.1-0.2-2.1-0.6-2.9c-0.4-0.8-1.2-1.6-2.3-2.4s-2.7-1.5-4.7-2.2c-2-0.7-4.6-1.5-7.9-2.3c-3.9-0.9-7.4-2-10.6-3.2
		c-3.2-1.2-5.8-2.6-8-4.3c-2.2-1.7-3.9-3.9-5.1-6.4c-1.2-2.6-1.8-5.7-1.8-9.5v-0.2c0-3.5,0.7-6.7,2-9.5c1.3-2.8,3.1-5.2,5.5-7.3
		c2.4-2,5.2-3.6,8.5-4.7C21.5,0.5,25.2,0,29.1,0c5.6,0,10.8,0.8,15.5,2.5c4.2,1.5,8.2,3.6,11.8,6.3c0.7,0.5,0.8,1.5,0.3,2.2
		l-7.1,10.2c-0.5,0.7-1.4,0.8-2.1,0.4c-3-1.9-5.9-3.5-8.8-4.7c-3.3-1.4-6.6-2-9.9-2s-5.8,0.6-7.4,1.9c-1.6,1.3-2.5,2.9-2.5,4.8v0.2
		c0,1.2,0.2,2.3,0.7,3.2c0.5,0.9,1.3,1.7,2.6,2.5c1.2,0.7,3,1.4,5.1,2.1c2.2,0.7,4.9,1.4,8.2,2.3c3.9,1,7.3,2.2,10.4,3.5
		c3,1.3,5.6,2.8,7.7,4.6c2.1,1.8,3.7,3.9,4.7,6.3c1.1,2.4,1.6,5.3,1.6,8.7v0.2c0,3.8-0.7,7.2-2.1,10.1c-1.4,3-3.3,5.5-5.8,7.5
		c-2.5,2-5.4,3.5-8.8,4.6C39.9,78.5,36.1,79,32,79z"/>
	<path class="st0" d="M74.7,2.7c0-0.9,0.7-1.6,1.6-1.6h29.8c4.6,0,8.7,0.6,12.3,1.9c3.6,1.3,6.7,3.1,9.2,5.4
		c2.5,2.3,4.5,5.1,5.8,8.4c1.4,3.3,2,6.9,2,10.8v0.2c0,4.5-0.8,8.4-2.4,11.7s-3.8,6.2-6.6,8.4c-2.8,2.3-6.1,4-9.9,5.1
		c-3.8,1.1-7.8,1.7-12.1,1.7H93.2c-0.9,0-1.6,0.7-1.6,1.6v19.9c0,0.9-0.7,1.6-1.6,1.6H76.3c-0.9,0-1.6-0.7-1.6-1.6V2.7z M105,39.8
		c4.2,0,7.5-1.1,9.9-3.3s3.5-5,3.5-8.3V28c0-3.8-1.2-6.7-3.7-8.7c-2.5-2-5.8-3-10-3H93.2c-0.9,0-1.6,0.7-1.6,1.6v20.4
		c0,0.9,0.7,1.6,1.6,1.6H105z"/>
	<g>
		<g>
			<path class="st0" d="M168.3,2c0.3-0.8,1.3-1.4,2.2-1.4h12.5c0.9,0,1.8,0.6,2.2,1.4l31.4,73.8c0.4,1-0.3,2.2-1.4,2.2h-13.8
				c-0.9,0-1.8-0.6-2.1-1.4l-5.8-14.3c-0.3-0.8-1.3-1.4-2.1-1.4h-29.4c-0.9,0-1.8,0.6-2.1,1.4l-5.8,14.3c-0.3,0.8-1.3,1.4-2.1,1.4
				h-13.3c-1.1,0-1.9-1.1-1.4-2.2L168.3,2z M185.8,43.6l-7.9-19.2c-0.5-1.3-2.4-1.3-2.9,0l-7.9,19.2c-0.4,1,0.3,2.1,1.4,2.1h15.8
				C185.4,45.8,186.2,44.6,185.8,43.6z"/>
		</g>
	</g>
	<path class="st0" d="M230.8,2.7c0-0.9,0.7-1.6,1.6-1.6h33.6c9.7,0,17.2,2.6,22.4,7.8c4.4,4.4,6.6,10.2,6.6,17.6v0.2
		c0,6.2-1.5,11.3-4.6,15.2c-2.7,3.4-6,6.1-10.1,7.9c-0.9,0.4-1.2,1.5-0.7,2.3l16,23.4c0.7,1,0,2.4-1.3,2.4h-16.8L261,53.3h-0.2
		h-11.5c-0.9,0-1.6,0.7-1.6,1.6v21.5c0,0.9-0.7,1.6-1.6,1.6h-13.8c-0.9,0-1.6-0.7-1.6-1.6V2.7z M264.8,38.4c4.2,0,7.4-1,9.6-3
		c2.2-2,3.3-4.6,3.3-7.9v-0.2c0-3.7-1.2-6.4-3.5-8.2c-2.3-1.8-5.6-2.7-9.8-2.7h-15.2c-0.9,0-1.6,0.7-1.6,1.6v18.9
		c0,0.9,0.7,1.6,1.6,1.6H264.8z"/>
	<path class="st0" d="M315.6,1.1h13.8c0.9,0,1.6,0.7,1.6,1.6v28.1c0,1.4,1.7,2.1,2.7,1.1l28.5-30.7h16.8c1.4,0,2.1,1.6,1.1,2.6
		l-27.8,29c-0.5,0.5-0.6,1.4-0.1,2l30.1,40.7c0.8,1,0,2.5-1.3,2.5h-17.2l-22.7-31.2c-0.6-0.8-1.7-0.9-2.4-0.2l-7.6,7.9v21.9
		c0,0.9-0.7,1.6-1.6,1.6h-13.8c-0.9,0-1.6-0.7-1.6-1.6V2.7C314,1.8,314.7,1.1,315.6,1.1z"/>
	<path class="st0" d="M479.9,1.1h13.8c0.9,0,1.6,0.7,1.6,1.6v58.4c0,0.9,0.7,1.6,1.6,1.6H532c0.9,0,1.6,0.7,1.6,1.6v12.1
		c0,0.9-0.7,1.6-1.6,1.6h-52.1c-0.9,0-1.6-0.7-1.6-1.6V2.7C478.4,1.8,479.1,1.1,479.9,1.1z"/>
	<path class="st0" d="M576.4,79.1c-10.3,0-18.4-2.9-24.4-8.6s-8.9-14.2-8.9-25.6V2.7c0-0.9,0.7-1.6,1.6-1.6h13.8
		c0.9,0,1.6,0.7,1.6,1.6v41.9c0,6.3,1.5,11,4.4,14.2c2.9,3.2,7,4.8,12.2,4.8c5.2,0,9.3-1.5,12.2-4.6c2.9-3.1,4.4-7.7,4.4-13.8V2.7
		c0-0.9,0.7-1.6,1.6-1.6h13.8c0.9,0,1.6,0.7,1.6,1.6v41.8c0,5.9-0.8,10.9-2.4,15.3c-1.6,4.3-3.8,7.9-6.7,10.8
		c-2.9,2.9-6.5,5-10.6,6.5C586.2,78.4,581.6,79.1,576.4,79.1z"/>
	<path class="st0" d="M654.8,79c-5.9,0-11.6-1-17.2-3c-5.2-1.8-9.9-4.6-14.2-8.2c-0.7-0.6-0.7-1.6-0.2-2.2l8-9.6
		c0.5-0.6,1.5-0.7,2.1-0.2c3.1,2.4,6.3,4.4,9.6,5.9c3.7,1.7,7.7,2.5,12.1,2.5c3.5,0,6.2-0.6,8.2-1.9c1.9-1.3,2.9-3.1,2.9-5.3v-0.2
		c0-1.1-0.2-2.1-0.6-2.9c-0.4-0.8-1.2-1.6-2.3-2.4c-1.1-0.7-2.7-1.5-4.7-2.2c-2-0.7-4.6-1.5-7.9-2.3c-3.9-0.9-7.4-2-10.6-3.2
		c-3.2-1.2-5.8-2.6-8-4.3c-2.2-1.7-3.9-3.9-5.1-6.4c-1.2-2.6-1.8-5.7-1.8-9.5v-0.2c0-3.5,0.7-6.7,2-9.5c1.3-2.8,3.1-5.2,5.5-7.3
		c2.4-2,5.2-3.6,8.5-4.7C644.4,0.5,648,0,651.9,0c5.6,0,10.8,0.8,15.5,2.5c4.2,1.5,8.2,3.6,11.8,6.3c0.7,0.5,0.8,1.5,0.3,2.2
		l-7.1,10.2c-0.5,0.7-1.4,0.8-2.1,0.4c-3-1.9-5.9-3.5-8.8-4.7c-3.3-1.4-6.6-2-9.9-2c-3.3,0-5.8,0.6-7.4,1.9
		c-1.6,1.3-2.5,2.9-2.5,4.8v0.2c0,1.2,0.2,2.3,0.7,3.2c0.5,0.9,1.3,1.7,2.6,2.5c1.2,0.7,3,1.4,5.1,2.1c2.2,0.7,4.9,1.4,8.2,2.3
		c3.9,1,7.3,2.2,10.4,3.5c3,1.3,5.6,2.8,7.7,4.6c2.1,1.8,3.7,3.9,4.7,6.3c1.1,2.4,1.6,5.3,1.6,8.7v0.2c0,3.8-0.7,7.2-2.1,10.1
		c-1.4,3-3.3,5.5-5.8,7.5c-2.5,2-5.4,3.5-8.8,4.6C662.7,78.5,658.9,79,654.8,79z"/>
</g>
</svg>
